<svg xmlns="http://www.w3.org/2000/svg" x="0px" y="0px" viewBox="0 0 864 864" enable-background="new 0 0 864 864"><style>.ls0{fill:#000}</style><g class="ls0"><g><path d="M358,166.8c-9,4.3-18.1,8.4-27.3,12.2c-6.9,2.9-13.8,5.7-20.8,8.4c-48,18.5-97.6,31.4-148.4,38.7 c-19.2,2.8-38.7,4.7-58.2,5.8c1.4,19.6,3.8,39,7.1,58.2c3.1,18,7,35.8,11.7,53.3c19.8-1.4,39.4-3.6,58.9-6.5 c-5-17.4-9-35-12.2-52.8c63.4-9,125.2-26.1,184.7-51.2c1.5-0.6,3-1.3,4.5-1.9v58.4v84.8v41.9v14.9v178 c-12.5-10.5-24.6-21.5-36.2-33.2c-27.7-27.7-52.1-57.9-73.1-90.3l-49.4,31.4c23.3,36,50.4,69.5,81.1,100.2 c24.2,24.2,50.1,46.1,77.6,65.7c2.7,1.9,5.3,3.8,8,5.6c15.8,10.9,32,21,48.8,30.3v-55.4v-12.8V430.2v-50.1v-6.7V264.3v-10.7v-50 V192v-55.5c-15.4,9.2-31.2,17.8-47.3,25.8C364.4,163.8,361.2,165.3,358,166.8z"/></g><g><path d="M681.8,284.2c-3.2,17.8-7.3,35.4-12.2,52.8c-6.1,21.5-13.6,42.7-22.4,63.5c-8.4,19.8-17.8,38.9-28.3,57.4 c-10.4-8.2-20.8-16.2-31.4-24.2c-15.9-12.1-31.9-24-48.1-35.7c-6.1,18.9-12.3,37.8-18.8,56.6c-8.9,25.6-18.2,51.1-27.9,76.4v-96.6 V365v-75.6v-58.4v-64.2c-3.2-1.5-6.3-3-9.5-4.6c-16.1-8-31.9-16.6-47.3-25.8V192v11.7v60.7v62.7v17.9v36.2v13.9v255.8v15.7v27.6 V719c7.9-4.4,15.8-9,23.5-13.8c8.6-5.3,17-10.8,25.2-16.5c1.7-1.2,3.5-2.4,5.2-3.6c1-2.1,1.9-4.2,2.8-6.3 c17-38,33.2-76.5,48.3-115.3c9.4-24.2,18.5-48.6,27.2-73.1c6.7,5.2,13.4,10.4,20,15.6c15.3,12.1,30.5,24.4,45.6,36.8 c11.2-15.4,21.6-31.4,31.3-47.8c13.5-23,25.6-46.9,36.1-71.7c11-26.1,20.2-52.7,27.4-79.8c4.7-17.6,8.6-35.4,11.7-53.3 c3.3-19.2,5.7-38.6,7.1-58.2c-19.6-1.1-39-3-58.2-5.8C687.6,245.7,685.2,265.1,681.8,284.2z"/></g></g></svg>